<?xml version="1.0" encoding="UTF-8" standalone="no"?>
<svg width="800" height="250" viewBox="0 0 130 40" fill="none" id="icon-main-logo"
     xmlns="http://www.w3.org/2000/svg"
     xml:space="preserve"><path fill-rule="evenodd" clip-rule="evenodd" d="M31.9772 10.423C31.6736 10.7266 31.6736 11.2663 31.9772 11.5699C32.2808 11.8734 32.8205 11.8734 33.1241 11.5699C33.4276 11.2663 33.4276 10.7266 33.1241 10.423C32.8205 10.1194 32.2808 10.1194 31.9772 10.423Z" fill="white"></path><path fill-rule="evenodd" clip-rule="evenodd" d="M40.0389 9.91699H36.5646L35.7213 10.9627C35.5864 11.0976 35.6201 11.2662 35.7551 11.3L36.9019 11.8059L40.1401 10.3218C40.3425 10.2206 40.275 9.91699 40.0389 9.91699ZM27.0861 26.9175H22.8023C21.6891 27.5584 21.3518 27.7608 19.8002 28.368C19.699 28.4017 19.6653 28.5029 19.699 28.6715L23.5444 39.3981H25.7369L22.1951 29.5485C24.4888 29.5485 29.9533 28.9414 32.8879 24.1516C32.0109 25.5683 29.8858 26.9175 27.0861 26.9175ZM33.124 11.5698C32.8204 11.8734 32.2807 11.8734 31.9772 11.5698C31.6736 11.2662 31.6736 10.7265 31.9772 10.423C32.2807 10.1194 32.8204 10.1194 33.124 10.423C32.4494 9.74834 31.3363 9.74834 30.6616 10.423C29.987 11.0976 29.987 12.2107 30.6616 12.8853C31.3363 13.56 32.4494 13.56 33.124 12.8853C33.7986 12.2107 33.7986 11.0976 33.124 10.423C33.4276 10.7603 33.4276 11.2662 33.124 11.5698ZM24.725 30.999C25.467 30.8978 26.1754 30.7629 26.7826 30.5942L29.9196 39.3643H27.727L24.725 30.999ZM27.6933 20.576C24.9273 24.7587 20.7109 27.7271 13.8635 27.7271H4.38504C4.14893 27.7271 4.14893 27.4909 4.25012 27.3897L6.74623 24.8599C3.27191 24.8599 1.24804 22.8023 0.505958 20.5086C0.438495 20.3737 0.371033 20.1038 0.640883 20.1038H11.2662C12.3793 20.1038 13.1552 19.7665 13.796 19.1931L22.2626 12.1433C19.0918 14.8755 14.7743 19.0919 10.8614 24.4889C10.7602 24.6238 10.8952 24.8262 11.0301 24.8262H16.056C19.3617 24.8262 23.6456 24.219 28.0643 19.5304C28.1655 19.4292 28.233 19.4292 28.3342 19.4629C28.1318 19.834 27.9294 20.205 27.6933 20.576Z" fill="#00985F"></path><path fill-rule="evenodd" clip-rule="evenodd" d="M122.276 39.3643H130V15.4489H122.276V24.219H114.99V15.4489H107.231V39.3643H114.99V30.3581H122.276V39.3643ZM30.6617 12.8853C29.987 12.2107 29.987 11.0976 30.6617 10.4229C31.3363 9.74831 32.4494 9.74831 33.124 10.4229C33.7986 11.0976 33.7986 12.2107 33.124 12.8853C32.4494 13.5599 31.3363 13.5599 30.6617 12.8853ZM32.9216 24.1853C35.89 19.3954 36.9019 11.8396 36.9019 11.8396L35.7551 11.3337C35.6201 11.2999 35.5527 11.1313 35.7213 10.9964L36.5646 9.9507C36.0249 8.90503 34.136 7.21847 31.3363 7.21847C29.6834 7.21847 28.233 7.65698 26.9175 8.50026C26.9175 8.50026 25.0285 9.78204 22.2626 12.177C19.0919 14.9092 14.7743 19.1256 10.8614 24.5226C10.7603 24.6912 10.8952 24.8599 11.0301 24.8599H16.056C19.3617 24.8599 23.6456 24.2527 28.0643 19.5641C28.1655 19.4629 28.233 19.4629 28.3342 19.4966C28.4354 19.5641 28.4354 19.6653 28.4017 19.7665C27.6933 21.453 25.973 24.8936 22.7686 26.9512H27.0524C29.8858 26.9175 32.0109 25.5682 32.9216 24.1853ZM28.5703 29.9533C32.1458 28.233 33.6975 26.5464 35.3166 23.1733C37.273 28.1655 39.3643 33.5963 41.287 39.3643H31.9097L28.5703 29.9533ZM0 39.3643H9.47846L12.6829 29.3461H3.44058C2.36118 32.3482 1.18059 35.6201 0 39.3643ZM12.8179 17.8775C12.3119 18.316 11.7047 18.4172 11.0301 18.4172H7.18474C11.1313 8.90503 14.5044 1.88895 15.4152 0H26.0405C26.479 0.910742 27.4235 2.93461 28.7727 5.86923C26.6139 6.47639 24.9948 7.75817 22.3638 9.91697C21.8241 8.56772 21.3181 7.31967 20.7447 6.07161C19.6653 8.39907 18.5859 11.1988 17.6077 13.931L12.8179 17.8775ZM71.4089 36.7333L71.9149 39.3643H78.1889V15.4489H70.4307V32.0446C69.7898 32.8542 68.3731 33.6975 67.1925 33.6975C65.0337 33.6975 63.8531 32.4494 63.8531 30.2231V15.4489H56.1287V32.0446C55.4878 32.8542 53.9362 33.6975 52.6544 33.6975C50.6642 33.6975 49.5511 32.4494 49.5511 30.2231V15.4489H41.8267V31.2351C41.8267 37.0031 44.3228 39.8365 49.5511 39.8365C53.329 39.8365 55.5215 38.4536 57.2756 36.5983C58.4562 38.7571 60.6487 39.8365 63.8531 39.8365C67.631 39.8703 69.7224 38.521 71.4089 36.7333ZM95.9652 32.0446C95.2569 32.8542 94.11 33.6975 92.2211 33.6975C90.1297 33.6975 88.9829 31.741 88.9829 28.0306C88.9829 23.4432 90.2309 21.1495 92.727 21.1495C94.1775 21.1495 94.9196 21.2507 95.9652 21.4868V32.0446ZM89.6238 39.8703H89.8599C93.3005 39.8365 95.6954 38.6559 97.0109 36.7333L97.4157 39.3643H103.723V16.4608C101.194 15.6513 98.2927 14.9766 92.862 14.9766C85.1375 14.9766 80.9211 19.699 80.9211 28.3342C80.9211 36.3285 83.8895 39.8365 89.6238 39.8703Z" fill="#E0001A"></path></svg>
