<?xml version="1.0" encoding="UTF-8" standalone="no"?>
<svg id="icon-main-logo" viewBox="0 0 47 32"
     xmlns="http://www.w3.org/2000/svg"
     width="1236.8005"
     height="779.81201"
     xml:space="preserve">
    <path fill="#009d3a" style="fill: var(--color1, #009d3a)" d="M18.468 2.818c-0.953 0.243-1.874 0.547-2.747 0.901 0.489 0.236 1.031 0.453 1.614 0.642 0.432-0.628 0.826-1.149 1.133-1.543zM32.566 3.78c-0.944-0.394-1.942-0.722-2.981-0.982 0.314 0.389 0.739 0.953 1.215 1.647 0.642-0.194 1.234-0.418 1.765-0.665zM30.317 4.588c-0.696-1.005-1.267-1.692-1.501-1.966-1.428-0.302-2.924-0.472-4.467-0.491v2.362c0.809 0.021 1.546 0.286 2.112 0.753 1.381-0.118 2.688-0.342 3.856-0.658zM17.817 4.507c1.201 0.349 2.565 0.599 4.017 0.729 0.573-0.75 1.579-0.75 1.978-0.75h0.066v-2.355c-1.609 0.012-3.165 0.189-4.649 0.51-0.295 0.356-0.809 1.003-1.411 1.867zM21.267 7.528c0.054-0.352 0.123-0.835 0.17-1.222 0.024-0.212 0.068-0.404 0.13-0.571-1.463-0.146-2.839-0.413-4.057-0.776-0.507 0.76-1.057 1.659-1.583 2.657 1.576-0.021 4.245-0.068 5.34-0.087zM31.65 25.274c-0.772 0.031-1.52 0.054-2.221 0.064-1.522 0.028-3.268 0.057-5.078 0.066v0.845c2.258 0.024 4.404 0.316 6.188 0.821 0.356-0.533 0.736-1.133 1.111-1.796zM26.921 5.725c0.373 0.486 0.607 1.086 0.689 1.77 0.401 0.012 1.001 0.028 1.654 0.047 0.835 0.024 1.838 0.050 2.893 0.083-0.51-0.977-1.041-1.848-1.534-2.586-1.123 0.321-2.376 0.555-3.703 0.687zM32.701 7.641c2.15 0.066 4.432 0.142 5.89 0.219-1.444-1.536-3.283-2.837-5.409-3.809-0.614 0.321-1.31 0.602-2.079 0.845 0.519 0.781 1.074 1.709 1.598 2.745zM29.574 29.206c0.989-0.245 1.937-0.557 2.844-0.925-0.505-0.241-1.074-0.455-1.69-0.642-0.444 0.647-0.845 1.178-1.154 1.567zM15.261 7.627c0.042 0 0.087-0.002 0.13-0.002 0.54-1.060 1.114-2.011 1.647-2.815-0.715-0.241-1.364-0.519-1.93-0.828-0.649 0.29-1.272 0.609-1.864 0.958 0.422 0.135 0.8 0.361 1.109 0.675 0.493 0.498 0.809 1.213 0.909 2.013zM31.016 27.212c0.741 0.234 1.411 0.507 1.989 0.817 1.808-0.805 3.417-1.845 4.758-3.066-1.782 0.109-3.722 0.219-5.553 0.29-0.401 0.722-0.807 1.378-1.194 1.959zM17.241 25.312c-0.283-0.012-0.559-0.024-0.833-0.031 0.385 0.67 0.769 1.284 1.133 1.822 1.822-0.531 4.026-0.833 6.336-0.854v-0.84c-0.26 0.002-0.522 0.002-0.781 0.002-2.148 0-4.061-0.033-5.855-0.099zM24.349 26.747v3.122c1.543-0.019 3.037-0.189 4.465-0.488 0.276-0.328 0.802-0.977 1.43-1.883-1.709-0.463-3.745-0.732-5.895-0.75zM15.851 25.26c-2.598-0.104-4.642-0.198-5.406-0.236 1.331 1.201 2.924 2.223 4.71 3.011 0.557-0.295 1.201-0.559 1.912-0.791-0.392-0.583-0.809-1.248-1.215-1.985zM15.75 28.293c0.866 0.352 1.772 0.649 2.714 0.887-0.297-0.378-0.682-0.887-1.111-1.508-0.583 0.184-1.121 0.392-1.602 0.621zM19.228 29.362c1.484 0.319 3.040 0.496 4.649 0.51v-3.124c-2.204 0.017-4.3 0.297-6.044 0.783 0.616 0.88 1.13 1.513 1.395 1.831z"></path>
    <path fill="#009d3a" style="fill: var(--color1, #009d3a)" d="M24.115 0.743c6.87 0 12.901 2.888 16.29 7.221 0.326 0.017 0.642 0.031 0.944 0.045-3.445-4.786-9.878-8.009-17.234-8.009-7.304 0-13.701 3.181-17.163 7.906 0.34-0.014 0.658-0.024 0.944-0.035 3.401-4.278 9.397-7.127 16.219-7.127zM24.115 31.257c-6.398 0-12.068-2.506-15.556-6.348-0.352-0.024-0.694-0.045-1.027-0.066 3.571 4.311 9.668 7.158 16.583 7.158 6.952 0 13.081-2.881 16.642-7.233-0.326 0.021-0.668 0.047-1.022 0.068-3.478 3.882-9.182 6.421-15.62 6.421z"></path>
    <path fill="#c54200" style="fill: var(--color2, #c54200)" d="M13.291 7.042c-0.26-0.359-0.647-0.543-1.107-0.522-0.427 0.021-0.854 0.045-1.281 0.071-0.090 0.007-0.163 0.071-0.179 0.16-0.944 5.27-1.635 10.022-2.114 14.52-0.057 0.51 0.073 0.991 0.359 1.362 0.283 0.368 0.682 0.588 1.121 0.614 0.43 0.031 0.857 0.054 1.286 0.078h0.009c0.097 0 0.182-0.076 0.191-0.177 0.451-4.503 1.104-9.322 1.989-14.726 0.085-0.531-0.012-1.019-0.274-1.381zM46.82 10.685c-0.236-0.319-0.736-0.635-1.192-0.699-0.783-0.111-2.94-0.245-4.389-0.267-0.871 0-1.612 0.706-1.727 1.652-0.026 0.243-0.585 3.769-0.717 5.019-0.116 1.090 0.668 1.645 1.496 1.647 0 0 1.963-0.005 2.728-0.021-0.090 0.512-0.222 1.263-0.295 1.657-0.467 0.028-0.934 0.050-1.399 0.071 0 0 0.024-0.156 0.024-0.238 0-0.571-0.411-1.015-0.937-1.015l-1.881 0.059c-0.094 0.005-0.175 0.078-0.186 0.175-0.142 0.857-0.286 1.713-0.437 2.577-0.092 0.512 0.005 0.984 0.264 1.331 0.243 0.33 0.614 0.512 1.043 0.512 0.028 0 2.48-0.125 4.547-0.361 0.812-0.090 1.642-0.892 1.886-1.822 0.314-1.187 0.54-2.294 0.793-4.444 0.068-0.555-0.021-0.913-0.314-1.272-0.278-0.337-0.675-0.522-1.121-0.522h-2.801c0.035-0.212 0.25-1.482 0.286-1.73 0.363 0.009 1.373 0.035 1.373 0.035s-0.028 0.097-0.021 0.243c0.026 0.555 0.472 1.012 0.993 1.017 0.592 0.005 1.185 0.014 1.786 0.021 0.113-0.002 0.182-0.073 0.198-0.175 0.113-0.727 0.224-1.482 0.33-2.247 0.068-0.529-0.109-0.911-0.33-1.206zM38.796 9.678c-0.033-0.040-0.087-0.068-0.139-0.071l-1.461-0.059c-0.847 0-1.579 0.727-1.699 1.69-0.345 2.787-0.755 5.659-1.253 8.772l-1.366 0.040c0.481-3.075 0.885-5.912 1.227-8.663 0.066-0.522-0.052-1.015-0.333-1.388s-0.677-0.585-1.123-0.599c-0.432-0.009-0.866-0.024-1.293-0.031-0.104-0.002-0.184 0.076-0.198 0.175-0.434 3.587-0.963 7.419-1.668 12.066-0.078 0.514 0.024 0.998 0.286 1.371 0.264 0.361 0.647 0.564 1.078 0.564l0.050-0.002c1.473-0.050 2.957-0.113 4.42-0.191 0.842-0.047 1.638-0.838 1.803-1.791 0.734-4.184 1.293-8.017 1.716-11.724 0.007-0.061-0.012-0.116-0.045-0.158zM6.73 14.294l1.841-0.012c0.099-0.005 0.179-0.076 0.194-0.175 0.13-0.854 0.269-1.711 0.411-2.568 0.085-0.529-0.021-1.019-0.295-1.376-0.252-0.345-0.644-0.524-1.121-0.524-1.123 0-3.037 0.080-4.531 0.229-0.838 0.087-1.9 0.878-2.067 1.805-0.611 3.363-1.192 7.983-1.192 9.111 0 0.271 0.040 0.953 0.399 1.388 0.297 0.363 0.779 0.486 1.206 0.562 1.248 0.217 3.495 0.399 4.458 0.399h0.076c0.951-0.014 1.482-0.517 1.666-1.593 0.238-1.416 0.691-5.267 0.732-5.574 0.050-0.37-0.014-0.661-0.179-0.866-0.179-0.208-0.455-0.316-0.833-0.316l-2.91 0.005c-0.094 0-0.179 0.073-0.196 0.175 0 0-0.189 1.215-0.269 1.784-0.040 0.309 0.047 0.63 0.248 0.866 0.172 0.217 0.415 0.34 0.665 0.352l0.142 0.002c-0.033 0.198-0.243 1.362-0.323 1.829-0.328-0.019-1.444-0.087-1.64-0.094 0.118-1.154 0.772-5.716 0.944-6.678 0.3-0.005 1.399-0.017 1.619-0.019-0.019 0.132-0.026 0.248-0.026 0.248 0.012 0.573 0.448 1.041 0.984 1.041zM17.234 20.156c-0.491-0.012-0.982-0.021-1.47-0.031 0.144-1.253 0.826-6.315 0.984-7.365 0.491-0.005 0.984-0.012 1.475-0.012-0.191 1.305-0.859 6.301-0.989 7.408zM21.241 9.869c-0.269-0.37-0.661-0.576-1.119-0.576-1.475 0.014-2.973 0.038-4.446 0.071-0.864 0.024-1.659 0.817-1.81 1.805-0.566 3.71-1.012 7.080-1.378 10.306-0.052 0.496 0.071 0.979 0.352 1.357 0.286 0.382 0.691 0.602 1.14 0.623 1.494 0.066 2.978 0.116 4.415 0.149l0.031 0.002c0.833 0 1.586-0.769 1.709-1.753 0.453-3.613 0.946-7.217 1.411-10.565 0.078-0.536-0.033-1.038-0.304-1.418zM29.755 9.907c-0.278-0.378-0.675-0.585-1.123-0.592-0.949-0.014-1.893-0.026-2.841-0.033 0.038-0.278 0.137-1.045 0.137-1.045 0.068-0.531-0.045-1.036-0.319-1.418-0.269-0.378-0.668-0.59-1.111-0.592h-1.279c-0.094 0-0.177 0.071-0.189 0.17-0.224 1.664-1.614 11.832-2.053 15.273-0.066 0.514 0.045 1.010 0.314 1.388 0.278 0.389 0.682 0.602 1.135 0.607 0.361 0 3.32-0.007 4.411-0.024 0.847-0.014 1.628-0.805 1.775-1.805 0.604-4.057 1.071-7.396 1.47-10.516 0.068-0.526-0.042-1.027-0.326-1.411zM25.786 20.203c-0.488 0.005-0.977 0.007-1.468 0.007 0 0 0.918-6.714 1.017-7.478 0.479 0.002 1.477 0.005 1.477 0.005-0.168 1.296-0.878 6.405-1.027 7.467z"></path>
    <path fill="#ee7100" style="fill: var(--color3, #ee7100)" d="M13.184 8.354c-0.876 5.343-1.522 10.105-1.973 14.56-0.368-0.021-0.734-0.040-1.097-0.061-0.33-0.024-0.628-0.186-0.842-0.467-0.224-0.288-0.323-0.666-0.281-1.067 0.472-4.446 1.156-9.14 2.086-14.339 0.373-0.021 1.18-0.059 1.18-0.059 0.3 0 0.552 0.125 0.727 0.366 0.198 0.269 0.269 0.647 0.201 1.067zM46.756 11.837c-0.097 0.699-0.198 1.392-0.297 2.063-0.543-0.007-1.081-0.014-1.621-0.019-0.314-0.005-0.581-0.286-0.597-0.623-0.005-0.12 0.076-0.373 0.076-0.373 0.014-0.059 0.007-0.127-0.033-0.177-0.035-0.057-0.094-0.085-0.156-0.087 0 0-1.385-0.035-1.805-0.045-0.106-0.005-0.189 0.076-0.201 0.179-0.028 0.203-0.316 1.907-0.352 2.143-0.009 0.059 0.007 0.123 0.047 0.168 0.038 0.047 0.092 0.071 0.149 0.071h3.037c0.328 0 0.618 0.134 0.817 0.378 0.194 0.234 0.286 0.455 0.224 0.953-0.25 2.124-0.477 3.214-0.786 4.382-0.196 0.753-0.906 1.447-1.543 1.52-2.058 0.234-4.439 0.359-4.439 0.359-0.333 0.017-0.611-0.104-0.793-0.349-0.191-0.253-0.26-0.609-0.189-1.001 0.142-0.812 0.276-1.612 0.408-2.417 0.562-0.019 1.126-0.038 1.704-0.059 0.302 0 0.536 0.269 0.538 0.607 0 0.132-0.057 0.427-0.057 0.427-0.005 0.061 0.012 0.125 0.052 0.172 0.038 0.042 0.099 0.071 0.158 0.066 0.599-0.031 1.196-0.061 1.801-0.094 0.090-0.005 0.168-0.076 0.184-0.168 0.068-0.363 0.281-1.527 0.37-2.074 0.009-0.064-0.007-0.127-0.047-0.17-0.040-0.047-0.097-0.073-0.158-0.071-0.533 0.017-2.962 0.026-2.962 0.026-0.68 0-1.17-0.484-1.097-1.208 0.125-1.232 0.687-4.746 0.715-4.998 0.087-0.732 0.658-1.286 1.331-1.286 1.961 0.038 3.54 0.16 4.34 0.264 0.326 0.042 0.732 0.283 0.913 0.531 0.21 0.276 0.316 0.552 0.269 0.911zM36.748 21.484c-0.132 0.772-0.783 1.425-1.447 1.463-1.458 0.078-2.94 0.142-4.411 0.189l-0.038 0.002c-0.316 0-0.581-0.142-0.769-0.401-0.201-0.281-0.276-0.661-0.212-1.067 0.691-4.571 1.218-8.363 1.647-11.901 0.373 0.007 0.743 0.017 1.119 0.024 0.328 0.012 0.625 0.168 0.828 0.446 0.217 0.288 0.309 0.675 0.26 1.090-0.354 2.818-0.767 5.725-1.263 8.89-0.012 0.059 0.005 0.12 0.042 0.163 0.038 0.045 0.094 0.068 0.149 0.068 0.59-0.014 1.178-0.031 1.76-0.050 0.092-0.005 0.17-0.076 0.186-0.17 0.512-3.179 0.93-6.105 1.279-8.946 0.094-0.765 0.663-1.338 1.317-1.338l1.239 0.052c-0.418 3.632-0.97 7.391-1.687 11.486zM3.983 12.618c-0.090 0.002-0.165 0.066-0.186 0.156-0.113 0.472-0.968 6.386-1.001 7.11-0.005 0.113 0.078 0.212 0.186 0.215 0.252 0.014 1.647 0.097 2.018 0.116 0.101 0.002 0.189-0.068 0.208-0.168 0.097-0.573 0.349-1.971 0.389-2.247 0.012-0.059-0.005-0.116-0.042-0.16-0.035-0.045-0.087-0.073-0.144-0.073l-0.37-0.009c-0.135-0.009-0.274-0.080-0.375-0.208-0.125-0.149-0.182-0.352-0.156-0.543 0.078-0.555 0.156-1.060 0.241-1.605l2.747-0.005c0.253 0 0.432 0.059 0.526 0.17 0.090 0.113 0.12 0.293 0.083 0.543-0.038 0.316-0.489 4.156-0.724 5.56-0.149 0.878-0.519 1.241-1.281 1.248h-0.068c-0.946 0-3.162-0.179-4.389-0.389-0.38-0.066-0.755-0.163-0.975-0.425-0.222-0.267-0.3-0.753-0.3-1.121 0-1.005 0.531-5.449 1.182-9.034 0.137-0.743 1.036-1.397 1.718-1.468 1.477-0.151 3.377-0.229 4.491-0.229 0.243 0 0.583 0.061 0.814 0.366 0.198 0.267 0.276 0.64 0.21 1.055-0.132 0.8-0.262 1.6-0.385 2.395l-1.673 0.012c-0.314 0-0.576-0.286-0.585-0.632 0.005-0.057 0.101-0.649 0.101-0.649s-1.914 0.007-2.258 0.019zM18.447 12.347c-0.623 0.005-1.246 0.007-1.867 0.009-0.092 0.002-0.17 0.073-0.186 0.163-0.094 0.526-0.965 6.999-1.036 7.783-0.005 0.052 0.014 0.106 0.047 0.149 0.035 0.042 0.087 0.068 0.139 0.068 0.618 0.014 1.237 0.028 1.86 0.038h0.002c0.099 0 0.184-0.080 0.194-0.182 0.047-0.517 0.913-7.002 1.041-7.797 0.009-0.059-0.005-0.118-0.045-0.16-0.038-0.047-0.092-0.078-0.149-0.071zM21.166 11.231c-0.465 3.351-0.956 6.95-1.409 10.568-0.101 0.786-0.684 1.404-1.329 1.404h-0.026c-1.43-0.031-2.914-0.083-4.406-0.149-0.333-0.014-0.635-0.179-0.85-0.47-0.219-0.293-0.316-0.67-0.271-1.062 0.359-3.224 0.809-6.584 1.371-10.287 0.125-0.812 0.755-1.451 1.437-1.473 1.475-0.028 2.971-0.057 4.453-0.071 0.319 0 0.602 0.149 0.798 0.418 0.208 0.295 0.293 0.691 0.231 1.121zM29.699 11.266c-0.399 3.115-0.866 6.454-1.468 10.506-0.12 0.812-0.734 1.454-1.402 1.463-1.435 0.021-2.929 0.031-4.399 0.021-0.33-0.002-0.623-0.158-0.828-0.441-0.212-0.295-0.297-0.684-0.243-1.114 0.439-3.419 1.812-13.475 2.027-15.077h1.109c0.321 0.002 0.607 0.153 0.805 0.432 0.215 0.295 0.3 0.696 0.243 1.126 0 0-0.118 0.911-0.165 1.274-0.007 0.054 0.009 0.111 0.047 0.158 0.035 0.045 0.087 0.071 0.144 0.071 1.019 0.005 2.039 0.014 3.058 0.033 0.326 0.002 0.614 0.158 0.819 0.434 0.217 0.297 0.307 0.691 0.253 1.114zM27.035 12.337c0 0-1.331-0.007-1.867-0.007-0.094 0-0.177 0.076-0.191 0.175-0.045 0.356-1.071 7.882-1.071 7.882-0.005 0.057 0.009 0.116 0.047 0.156 0.035 0.045 0.090 0.071 0.146 0.071 0.616 0 1.237-0.005 1.855-0.009 0.094-0.002 0.175-0.076 0.191-0.168 0.068-0.465 0.984-7.096 1.081-7.87 0.005-0.059-0.007-0.12-0.047-0.158-0.040-0.047-0.090-0.071-0.144-0.071z"></path>
</svg>
