<?xml version="1.0" encoding="utf-8"?>
<svg width="156" height="50" viewBox="0 0 156 50.103" fill="none" xmlns="http://www.w3.org/2000/svg">
  <path d="M0 0V50H148.385L156 25L148.385 0H0Z" fill="#171C8F"/>
  <path d="M10 25.4801C12.1882 30.4876 17.2853 33.9982 23.2242 33.9982C21.0342 28.9908 15.9389 25.4818 10 25.4801Z" fill="#18A95D"/>
  <path d="M23.2242 33.9982C27.5865 33.9982 31.3425 31.4723 33.0386 27.84C28.6763 27.84 24.9185 30.366 23.2242 33.9982Z" fill="#18A95D"/>
  <path fill-rule="evenodd" clip-rule="evenodd" d="M34 16.4995C34 22.2983 29.1755 26.9991 23.2242 26.9991C17.2728 26.9991 12.4483 22.2983 12.4483 16.4995C12.4483 10.7008 17.2728 6 23.2242 6C29.1755 6 34 10.7008 34 16.4995ZM28.6113 16.4997C28.6113 19.3985 26.1994 21.7486 23.2242 21.7486C20.249 21.7486 17.8372 19.3985 17.8372 16.4997C17.8372 13.6008 20.249 11.2507 23.2242 11.2507C26.1994 11.2507 28.6113 13.6008 28.6113 16.4997Z" fill="#FCBF00"/>
  <path d="M91.9946 16.4784H96.4884V33.5216H91.9946V26.8826H84.1494V33.5216H79.6574V16.4784H84.1494V22.759H91.9946V16.4784ZM98.603 20.7049H104.197V33.5216H108.689V20.7049H114.213V16.4784H98.6012V20.7049H98.603ZM136 29.8146V33.4376C135.234 33.8131 134.278 34 133.16 34C130.826 34 129.651 33.0038 129.18 31.4041L129.104 31.5104C127.747 33.1804 125.865 33.9983 123.428 33.9983C121.094 33.9983 119.109 33.1461 117.438 31.4075C115.802 29.6689 114.966 27.5222 114.966 25C114.966 22.4778 115.802 20.3637 117.438 18.6251C119.109 16.8865 121.094 16 123.428 16C125.76 16 127.58 16.7493 128.922 18.2753V16.4784H133.414V28.5338C133.414 29.5643 133.892 30.0958 134.851 30.0958C135.297 30.0941 135.681 30.0015 136 29.8146ZM129.106 25C129.106 23.6026 128.654 22.4435 127.713 21.5571C126.808 20.6363 125.658 20.1939 124.265 20.1939C122.873 20.1939 121.723 20.6363 120.818 21.5571C119.912 22.4435 119.46 23.6026 119.46 25C119.46 26.3974 119.912 27.5565 120.818 28.4772C121.723 29.3637 122.873 29.8061 124.265 29.8061C125.658 29.8061 126.808 29.3637 127.713 28.4772C128.652 27.5565 129.106 26.3974 129.106 25ZM42.644 16.4784L42.5109 22.8807C42.4794 25.4732 42.383 26.7523 41.9993 28.22C41.6489 29.626 40.9779 30.0221 39.925 30.0221C39.5746 30.0221 39.2558 29.9912 39 29.8969V33.5199C39.3504 33.7068 39.925 33.8011 40.6906 33.8011C43.8494 33.7068 45.3806 32.2477 46.1479 29.626C46.691 27.752 46.7856 26.3151 46.882 24.1616L46.9819 20.7049H52.5618V33.5216H57.0538V16.4784H42.644ZM64.2823 26.1488C64.7659 29.0585 67.1222 30.0101 69.5136 30.0101C71.0974 30.0101 72.7583 29.4048 73.7796 28.4978L76.5512 31.2258C74.8956 33.0192 72.5936 33.9983 69.4436 33.9983C65.0357 33.9983 59.7185 31.4521 59.7185 25C59.7185 18.5479 64.8395 16.0017 69.1878 16.0017C74.6889 16.0017 76.9647 18.5308 76.9647 21.3667C76.9647 26.0013 70.945 28.1429 64.2823 26.1488ZM72.0855 21.8674C72.0855 20.5454 70.7488 19.9556 69.2526 19.9556C66.9646 19.9556 64.9831 20.9004 64.3804 23.3334C69.0406 24.6502 72.0855 23.6677 72.0855 21.8674Z" fill="white"/>
</svg>