<svg width="144" height="44" viewBox="0 0 144 44" fill="none" xmlns="http://www.w3.org/2000/svg">
<path fill-rule="evenodd" clip-rule="evenodd" d="M35.4204 11.5021C35.2942 11.6274 35.2082 11.7872 35.1733 11.9612C35.1383 12.1352 35.156 12.3156 35.224 12.4796C35.292 12.6436 35.4074 12.7838 35.5555 12.8825C35.7035 12.9811 35.8776 13.0338 36.0558 13.0338C36.2339 13.0338 36.408 12.9811 36.5561 12.8825C36.7041 12.7838 36.8195 12.6436 36.8875 12.4796C36.9556 12.3156 36.9732 12.1352 36.9383 11.9612C36.9033 11.7872 36.8173 11.6274 36.6912 11.5021C36.5194 11.3404 36.2921 11.2504 36.0558 11.2504C35.8195 11.2504 35.5921 11.3404 35.4204 11.5021Z" fill="white"/>
<path fill-rule="evenodd" clip-rule="evenodd" d="M44.3503 10.939H40.5001L39.5659 12.0921C39.4165 12.2409 39.4543 12.4274 39.6037 12.4651L40.8745 13.0228L44.4601 11.3909C44.5126 11.3699 44.5559 11.3307 44.5818 11.2805C44.6078 11.2303 44.6147 11.1725 44.6014 11.1176C44.5881 11.0628 44.5553 11.0145 44.5092 10.9817C44.4631 10.9489 44.4067 10.9338 44.3503 10.939ZM30.0025 29.7057H25.2577C24.206 30.3485 23.0922 30.8844 21.9331 31.3053C21.8197 31.343 21.7837 31.4542 21.8197 31.6407L26.0803 43.4763H28.5085L24.5863 32.6073C27.1261 32.6073 33.1795 31.9366 36.4303 26.6518C35.4601 28.2155 33.1039 29.7057 30.0025 29.7057ZM36.6912 12.7682C36.5655 12.8938 36.4051 12.9795 36.2305 13.0143C36.0558 13.0492 35.8747 13.0316 35.7101 12.9638C35.5455 12.896 35.4048 12.7811 35.3057 12.6336C35.2067 12.4861 35.1539 12.3126 35.1539 12.1351C35.1539 11.9577 35.2067 11.7842 35.3057 11.6367C35.4048 11.4892 35.5455 11.3743 35.7101 11.3065C35.8747 11.2387 36.0558 11.2211 36.2305 11.2559C36.4051 11.2907 36.5655 11.3764 36.6912 11.5021C36.4216 11.2336 36.0781 11.0508 35.7042 10.9767C35.3302 10.9027 34.9427 10.9408 34.5905 11.0862C34.2383 11.2316 33.9372 11.4778 33.7255 11.7936C33.5137 12.1094 33.4006 12.4807 33.4006 12.8605C33.4006 13.2403 33.5137 13.6116 33.7255 13.9274C33.9372 14.2433 34.2383 14.4894 34.5905 14.6348C34.9427 14.7802 35.3302 14.8183 35.7042 14.7443C36.0781 14.6703 36.4216 14.4874 36.6912 14.2189C37.0504 13.8573 37.2518 13.3692 37.2518 12.8605C37.2518 12.3518 37.0504 11.8637 36.6912 11.5021C36.8535 11.6732 36.9439 11.8997 36.9439 12.1351C36.9439 12.3705 36.8535 12.597 36.6912 12.7682ZM27.3871 34.2087C28.1564 34.1104 28.9182 33.9612 29.6677 33.7621L33.1417 43.4459H30.7135L27.3871 34.2087ZM30.6757 22.7065C27.6157 27.3224 22.9357 30.597 15.3559 30.597H4.86005C4.81552 30.5996 4.7713 30.5882 4.73365 30.5643C4.696 30.5405 4.66685 30.5054 4.65031 30.4642C4.63378 30.4229 4.63071 30.3775 4.64154 30.3344C4.65237 30.2912 4.67655 30.2526 4.71065 30.224L7.47365 27.4372C3.62345 27.4372 1.38245 25.1669 0.559853 22.6366C0.486053 22.4878 0.410453 22.1901 0.709253 22.1901H12.4795C13.7125 22.1901 14.5729 21.8171 15.2821 21.184L24.6601 13.4012C19.9439 17.4509 15.7069 22.0234 12.0313 27.0301C12.0105 27.0654 11.9987 27.1052 11.997 27.1461C11.9953 27.1869 12.0037 27.2276 12.0215 27.2644C12.0393 27.3013 12.0659 27.3332 12.099 27.3574C12.1321 27.3816 12.1706 27.3973 12.2113 27.4031H17.7859C21.4471 27.4031 26.1919 26.7325 31.0861 21.5588C31.1194 21.5138 31.1675 21.4817 31.2219 21.4679C31.2764 21.4542 31.334 21.4597 31.3849 21.4835C31.1617 21.8888 30.9367 22.2977 30.6757 22.7065Z" fill="#00985F"/>
<path fill-rule="evenodd" clip-rule="evenodd" d="M135.445 43.4405H144V17.0487H135.445V26.7325H127.373V17.0487H118.778V43.4405H127.373V33.5021H135.445V43.4405ZM33.9642 14.2189C33.6947 13.9503 33.5112 13.6081 33.4369 13.2355C33.3626 12.863 33.4008 12.4769 33.5467 12.126C33.6927 11.7751 33.9398 11.4752 34.2568 11.2642C34.5738 11.0532 34.9465 10.9406 35.3277 10.9406C35.7089 10.9406 36.0816 11.0532 36.3986 11.2642C36.7156 11.4752 36.9627 11.7751 37.1087 12.126C37.2546 12.4769 37.2928 12.863 37.2185 13.2355C37.1442 13.6081 36.9607 13.9503 36.6912 14.2189C36.3283 14.5767 35.8383 14.7774 35.3277 14.7774C34.8171 14.7774 34.3271 14.5767 33.9642 14.2189ZM36.4662 26.6894C39.7548 21.4046 40.8762 13.0605 40.8762 13.0605L39.6 12.5082C39.4506 12.4705 39.3768 12.284 39.5622 12.1351L40.5 10.9821C39.9024 9.82719 37.8108 7.96576 34.7094 7.96576C32.9739 7.94789 31.2715 8.44002 29.8152 9.38067C28.0259 10.6415 26.3051 11.9961 24.66 13.4389C19.9438 17.4886 15.7068 22.0611 12.0312 27.0678C12.0083 27.1025 11.9949 27.1425 11.9921 27.184C11.9894 27.2254 11.9975 27.2668 12.0156 27.3042C12.0338 27.3416 12.0613 27.3737 12.0956 27.3973C12.1299 27.4209 12.1697 27.4353 12.2112 27.439H17.7858C21.447 27.439 26.1918 26.7701 31.086 21.5947C31.1198 21.5503 31.168 21.5187 31.2224 21.5053C31.2767 21.4919 31.3341 21.4975 31.3848 21.5212C31.4318 21.553 31.4654 21.6009 31.4793 21.6557C31.4933 21.7106 31.4865 21.7686 31.4604 21.8189C30.6756 23.6803 28.7694 27.4767 25.2198 29.747H29.9664C33.1038 29.7057 35.46 28.2155 36.4662 26.6894ZM31.6476 33.0556C35.6076 31.1565 37.3266 29.2897 39.1194 25.5722C41.2794 31.083 43.6032 37.0761 45.7326 43.4405H35.3466L31.6476 33.0556ZM0 43.4405H10.4994L14.049 32.3849H3.8106C2.6154 35.6989 1.3086 39.3088 0 43.4405ZM14.1984 19.7261C13.6386 20.2085 12.9654 20.3215 12.2184 20.3215H7.9578C12.33 9.82719 16.0668 2.0838 17.0748 0H28.845C29.331 1.00424 30.3768 3.23867 31.8708 6.47734C29.4804 7.14623 27.6858 8.56113 24.7716 10.939C24.174 9.44881 23.6142 8.06978 22.9716 6.69433C21.7764 9.2641 20.5794 12.3539 19.4976 15.3684L14.1984 19.7261ZM79.0992 40.5282L79.659 43.4315H86.6088V17.0487H78.0156V35.3635C77.3064 36.2602 75.7368 37.1873 74.4282 37.1873C72.0378 37.1873 70.7292 35.8101 70.7292 33.3533V17.0487H62.1738V35.3635C61.4538 36.2602 59.7456 37.1873 58.3254 37.1873C56.1204 37.1873 54.8874 35.8101 54.8874 33.3533V17.0487H46.332V34.4705C46.332 40.8349 49.0968 43.9623 54.8874 43.9623C59.0724 43.9623 61.5006 42.4363 63.4446 40.3883C64.7514 42.771 67.1796 43.9623 70.7292 43.9623C74.9142 44 77.2308 42.5098 79.0992 40.5372V40.5282ZM106.301 35.3635C105.516 36.2602 104.245 37.1873 102.161 37.1873C99.8442 37.1873 98.5752 35.0354 98.5752 30.9341C98.5752 25.8723 99.9552 23.3408 102.715 23.3396C103.922 23.3097 105.128 23.4351 106.303 23.7126L106.301 35.3635ZM99.2808 44H99.54C103.352 43.9623 106.004 42.6586 107.46 40.5372L107.908 43.4405H114.894V18.166C112.091 17.2693 108.878 16.5269 102.863 16.5269C94.3056 16.5269 89.6364 21.7382 89.6364 31.2677C89.64 40.0906 92.9232 43.9623 99.2754 44H99.2808Z" fill="#E0001A"/>
</svg>
