<svg width="144" height="44" viewBox="0 0 144 44" fill="none" xmlns="http://www.w3.org/2000/svg">
<path fill-rule="evenodd" clip-rule="evenodd" d="M14.1984 19.7261L19.5048 15.3702C20.5848 12.3557 21.7836 9.27307 22.9788 6.69612C23.6142 8.07336 24.174 9.4506 24.7788 10.9408C27.693 8.55755 29.4876 7.14265 31.878 6.47375C30.3768 3.23867 29.34 1.00424 28.845 0H17.0748C16.0668 2.0838 12.33 9.82719 7.9578 20.3251H12.2184C12.96 20.3251 13.6386 20.2121 14.1984 19.7261ZM0 43.4405H10.4994L14.049 32.3849H3.8106C2.6154 35.6989 1.3086 39.3088 0 43.4405ZM89.64 31.2677C89.64 40.0906 92.9268 43.9623 99.279 44H99.54C103.352 43.9623 106.004 42.6586 107.46 40.5372L107.908 43.4405H114.894V18.166C112.091 17.2693 108.878 16.5269 102.863 16.5269C94.3056 16.5269 89.64 21.7382 89.64 31.2677ZM106.304 35.3635C105.52 36.2602 104.249 37.1873 102.164 37.1873C99.8478 37.1873 98.5788 35.0354 98.5788 30.9341C98.5788 25.8723 99.9588 23.3408 102.719 23.3396C103.926 23.3097 105.131 23.4351 106.306 23.7126L106.304 35.3635ZM31.6476 33.0556L35.3466 43.4405H45.7326C43.6032 37.0761 41.2866 31.083 39.1194 25.5722C37.3266 29.2951 35.6076 31.1565 31.6476 33.0556ZM135.445 17.0487V26.7325H127.373V17.0487H118.778V43.4405H127.373V33.5021H135.445V43.4405H144V17.0487H135.445ZM78.0246 35.3635C77.3154 36.2602 75.7458 37.1873 74.4372 37.1873C72.0468 37.1873 70.7382 35.8101 70.7382 33.3533V17.0487H62.1738V35.3635C61.4538 36.2602 59.7456 37.1873 58.3254 37.1873C56.1204 37.1873 54.8874 35.8101 54.8874 33.3533V17.0487H46.332V34.4705C46.332 40.8349 49.0968 43.9623 54.8874 43.9623C59.0724 43.9623 61.5006 42.4363 63.4446 40.3883C64.7514 42.771 67.1796 43.9623 70.7292 43.9623C74.9142 44 77.2308 42.5098 79.0992 40.5372L79.659 43.4405H86.6088V17.0487H78.0156L78.0246 35.3635ZM27.396 34.2087L30.7224 43.4405H33.1506L29.6766 33.7568C28.9244 33.9581 28.1595 34.1091 27.387 34.2087H27.396ZM40.8762 13.0282L44.46 11.3909C44.5091 11.3675 44.5486 11.3279 44.5717 11.2787C44.5948 11.2296 44.6001 11.174 44.5868 11.1214C44.5734 11.0688 44.5422 11.0225 44.4984 10.9902C44.4546 10.9579 44.401 10.9417 44.3466 10.9444H40.5L40.4892 10.9588C39.8754 9.80388 37.7892 7.96576 34.7094 7.96576C32.9739 7.94789 31.2715 8.44002 29.8152 9.38067C29.8152 9.38067 27.72 10.7597 24.66 13.4012L15.282 21.1805C14.5728 21.8135 13.7124 22.1865 12.4794 22.1865H0.7092C0.4104 22.1865 0.486 22.4842 0.5598 22.633C1.3824 25.1634 3.6234 27.4372 7.4736 27.4372L4.707 30.2258C4.6729 30.2544 4.64872 30.2931 4.63789 30.3362C4.62706 30.3793 4.63013 30.4247 4.64666 30.466C4.66319 30.5073 4.69235 30.5423 4.73 30.5661C4.76764 30.59 4.81187 30.6014 4.8564 30.5988H15.3558C22.941 30.5988 27.612 27.3225 30.6756 22.7083C30.9312 22.3102 31.149 21.9103 31.3686 21.5122H31.3848C31.4318 21.544 31.4654 21.5919 31.4793 21.6468C31.4933 21.7016 31.4865 21.7597 31.4604 21.8099C30.6792 23.6606 28.7892 27.4265 25.2774 29.7004H25.2576C24.2059 30.3431 23.0922 30.879 21.933 31.3C21.8196 31.3376 21.7836 31.4488 21.8196 31.6353L26.0802 43.471H28.5084L24.5862 32.6019C27.0288 32.6019 32.715 31.9796 36.0396 27.2346C36.1954 27.0613 36.3379 26.8767 36.4662 26.6823C39.7548 21.4046 40.8762 13.0282 40.8762 13.0282ZM33.9642 11.5021C34.3271 11.1443 34.8171 10.9437 35.3277 10.9437C35.8383 10.9437 36.3283 11.1443 36.6912 11.5021C36.5654 11.3764 36.4051 11.2908 36.2304 11.2559C36.0558 11.2211 35.8747 11.2387 35.71 11.3065C35.5454 11.3743 35.4047 11.4892 35.3057 11.6367C35.2067 11.7842 35.1538 11.9577 35.1538 12.1351C35.1538 12.3126 35.2067 12.4861 35.3057 12.6336C35.4047 12.7811 35.5454 12.896 35.71 12.9638C35.8747 13.0316 36.0558 13.0492 36.2304 13.0144C36.4051 12.9795 36.5654 12.8939 36.6912 12.7682C36.8535 12.5971 36.9439 12.3706 36.9439 12.1351C36.9439 11.8997 36.8535 11.6732 36.6912 11.5021C36.9607 11.7708 37.1442 12.113 37.2185 12.4855C37.2928 12.8581 37.2546 13.2442 37.1087 13.5951C36.9627 13.9459 36.7156 14.2459 36.3986 14.4568C36.0816 14.6678 35.7089 14.7805 35.3277 14.7805C34.9465 14.7805 34.5738 14.6678 34.2568 14.4568C33.9398 14.2459 33.6927 13.9459 33.5467 13.5951C33.4008 13.2442 33.3626 12.8581 33.4369 12.4855C33.5112 12.113 33.6947 11.7708 33.9642 11.5021Z" fill="#AFAFAF"/>
</svg>
