<svg width="144" height="97" viewBox="0 0 144 97" fill="none" xmlns="http://www.w3.org/2000/svg">
<path d="M56.4359 8.54149C53.5831 9.26446 50.7829 10.1787 48.0545 11.278C49.6497 12.0366 51.2949 12.6866 52.9789 13.2233C54.2974 11.319 55.4994 9.73559 56.4359 8.54149ZM99.4522 11.4583C96.4994 10.2409 93.4588 9.24555 90.3559 8.48055C91.3137 9.65971 92.6096 11.37 94.0633 13.4733C95.9033 12.9279 97.7024 12.2546 99.4472 11.4583H99.4522ZM92.5896 13.9074C90.4611 10.86 88.7232 8.77782 88.0095 7.94818C83.5263 7.00875 78.961 6.50882 74.3794 6.45557V13.6151C76.8485 13.6786 79.0972 14.4858 80.8238 15.8976C85.0383 15.5394 89.0262 14.8615 92.5934 13.9074H92.5896ZM54.4501 13.6587C58.1137 14.7172 62.2756 15.4747 66.7067 15.869C68.4596 13.5952 71.5247 13.5952 72.7417 13.5952H72.9433V6.4593C68.1737 6.48997 63.42 7.00806 58.7573 8.0054C57.8583 9.08381 56.2894 11.0454 54.4526 13.6649L54.4501 13.6587ZM64.9776 22.8183C65.1428 21.7511 65.3532 20.2871 65.4959 19.1142C65.5581 18.5237 65.6913 17.9429 65.8928 17.384C61.4292 16.9412 57.231 16.1314 53.5136 15.0319C51.7663 17.6327 50.1544 20.3209 48.6843 23.0858C53.4923 23.0211 61.6358 22.8793 64.9776 22.8221V22.8183ZM96.6551 76.6097C94.2999 76.7029 92.0224 76.7726 89.8789 76.8025C85.2349 76.8883 79.9073 76.9754 74.3844 77.0027V79.565C81.2708 79.6372 87.823 80.5228 93.2657 82.0527C94.3525 80.4357 95.512 78.6185 96.6551 76.6097V76.6097ZM82.2274 17.3529C83.3656 18.8268 84.0792 20.6453 84.3297 22.7188C85.5529 22.7549 87.3847 22.8034 89.3768 22.8606C91.9248 22.934 94.9848 23.0124 98.2039 23.1094C96.7857 20.4162 95.2234 17.8004 93.5237 15.2732C89.8269 16.2982 86.0458 16.995 82.2249 17.3554L82.2274 17.3529ZM99.8642 23.1604C106.424 23.3607 113.387 23.5908 117.835 23.8246C113.429 19.1689 107.819 15.2259 101.332 12.2792C99.2959 13.3148 97.1731 14.1717 94.9873 14.8403C96.7754 17.5165 98.4039 20.2946 99.8642 23.1604V23.1604ZM90.3221 88.5269C93.2783 87.7989 96.1784 86.862 99.0002 85.7233C97.3325 84.9487 95.6091 84.2984 93.8442 83.7779C92.4894 85.7395 91.2712 87.349 90.3221 88.5269ZM46.6509 23.1181C46.7761 23.1181 46.9164 23.1119 47.0478 23.1119C48.5586 20.1757 50.2361 17.3273 52.0724 14.5804C50.0402 13.9124 48.07 13.0709 46.1839 12.0653C44.2348 12.926 42.3362 13.8952 40.497 14.9684C41.7748 15.3668 42.9352 16.0692 43.8776 17.0146C45.3801 18.5246 46.3467 20.6914 46.6509 23.1169V23.1181ZM94.7219 82.4831C96.8159 83.1197 98.8462 83.947 100.787 84.9546C106.304 82.5154 111.213 79.3573 115.311 75.6618C109.875 75.9915 103.955 76.3248 98.3679 76.54C97.1422 78.7354 95.9039 80.7255 94.7219 82.4831ZM52.6922 76.7241C51.8283 76.688 50.9869 76.652 50.1505 76.6308C51.3249 78.6608 52.4969 80.5228 53.6075 82.1535C59.1667 80.5439 65.8916 79.6285 72.9395 79.565V77.0189C72.147 77.0189 71.3469 77.0189 70.5606 77.0189C64.0035 77.0239 58.1663 76.9244 52.6922 76.7241V76.7241ZM74.3794 81.0776V90.5407C78.9583 90.4868 83.5211 89.9907 88.0033 89.0593C88.8459 88.0642 90.4511 86.0977 92.3667 83.3513C87.1518 81.9482 80.9403 81.1323 74.3794 81.0788V81.0776ZM48.4502 76.5661C40.5233 76.2514 34.2854 75.9666 31.9553 75.8509C36.0158 79.4916 40.8764 82.5901 46.3267 84.9783C48.1992 84.0162 50.1507 83.2139 52.1601 82.5801C50.9643 80.8139 49.691 78.7976 48.4527 76.5636L48.4502 76.5661ZM48.1409 85.7606C50.8357 86.845 53.6027 87.7431 56.4221 88.4486C55.5156 87.303 54.3412 85.7606 53.0328 83.8775C51.3636 84.3934 49.7321 85.0226 48.1497 85.7606H48.1409ZM58.7535 88.9946C63.4169 89.9898 68.17 90.5115 72.9395 90.5519V81.0776C66.2146 81.1286 59.8203 81.9768 54.499 83.4508C56.3771 86.1176 57.9459 88.0369 58.756 89.0008L58.7535 88.9946Z" fill="#009D3A"/>
<path d="M73.6657 2.2526C94.6279 2.2526 113.03 11.0055 123.373 24.1443C124.367 24.1953 125.331 24.2376 126.253 24.2799C115.739 9.76916 96.1104 0 73.6657 0C51.3787 0 31.8613 9.64229 21.2988 23.9639C22.3355 23.9216 23.3021 23.8918 24.1786 23.8582C34.5521 10.8911 52.8511 2.25509 73.6657 2.25509V2.2526ZM73.6657 94.7449C54.1445 94.7449 36.8446 87.1487 26.202 75.5026C25.1277 75.4305 24.0834 75.3658 23.0718 75.3024C33.9648 88.3702 52.5707 97 73.6694 97C94.8821 97 113.583 88.267 124.447 75.0747C123.453 75.1394 122.409 75.2178 121.33 75.2812C110.717 87.048 93.3132 94.7449 73.6694 94.7449H73.6657Z" fill="#009D3A"/>
<path d="M40.6399 21.3456C39.8473 20.2573 38.6654 19.6988 37.2593 19.7635C35.9571 19.8273 34.6545 19.899 33.3515 19.9787C33.219 19.987 33.0931 20.0393 32.9941 20.1273C32.895 20.2153 32.8287 20.3338 32.8056 20.4638C29.9259 36.4372 27.8161 50.8409 26.3549 64.476C26.1809 66.0208 26.5778 67.4798 27.4505 68.6043C28.3232 69.7287 29.5315 70.3867 30.8712 70.47C32.1821 70.5633 33.4855 70.6342 34.7939 70.7064H34.8215C34.9684 70.7051 35.1096 70.6494 35.2175 70.5503C35.3254 70.4512 35.3922 70.3157 35.4049 70.1703C36.7822 56.5203 38.773 41.9139 41.4738 25.5337C41.7329 23.9241 41.4375 22.444 40.6374 21.3469L40.6399 21.3456ZM142.943 32.3873C142.223 31.4208 140.698 30.463 139.312 30.2727C136.922 29.9369 130.341 29.5264 125.915 29.463C123.257 29.463 120.997 31.6036 120.645 34.4707C120.57 35.2008 118.861 45.8979 118.458 49.6804C118.103 52.9841 120.496 54.667 123.023 54.6732C123.023 54.6732 129.011 54.657 131.347 54.6085C131.071 56.1609 130.669 58.4371 130.446 59.6312C129.021 59.717 127.597 59.7829 126.178 59.8464C126.215 59.6074 126.24 59.3666 126.251 59.1249C126.251 57.3948 124.998 56.0489 123.392 56.0489L117.653 56.228C117.51 56.2358 117.375 56.2933 117.272 56.3902C117.168 56.4872 117.102 56.6174 117.085 56.7579C116.651 59.3563 116.209 61.951 115.752 64.5692C115.47 66.1216 115.767 67.5545 116.557 68.6043C117.298 69.5994 118.435 70.1554 119.74 70.1554C119.825 70.1554 127.306 69.7822 133.613 69.062C136.091 68.7884 138.621 66.3579 139.372 63.5393C140.33 59.9409 141.02 56.585 141.793 50.0685C141.999 48.3856 141.729 47.301 140.835 46.2126C140.421 45.7106 139.898 45.3076 139.306 45.0337C138.714 44.7598 138.067 44.622 137.414 44.6304H128.867C128.974 43.9873 129.63 40.1389 129.744 39.3864L133.933 39.4933C133.875 39.7343 133.854 39.9825 133.869 40.2297C133.948 41.9114 135.309 43.297 136.899 43.3119C138.705 43.3269 140.514 43.3542 142.348 43.3754C142.498 43.3795 142.643 43.3271 142.755 43.2287C142.868 43.1304 142.938 42.9934 142.952 42.8455C143.298 40.6414 143.636 38.3527 143.954 36.0342C144.16 34.4309 143.621 33.2729 142.952 32.3785L142.943 32.3873ZM118.461 29.3349C118.354 29.2103 118.201 29.133 118.037 29.1197L113.58 28.9418C110.994 28.9418 108.762 31.1446 108.395 34.064C107.342 42.5121 106.091 51.2178 104.572 60.6536L100.404 60.778C101.871 51.4579 103.105 42.8579 104.148 34.5192C104.349 32.937 103.989 31.4432 103.132 30.3125C102.276 29.1819 101.066 28.5388 99.7053 28.4965C98.3869 28.4691 97.0634 28.4231 95.76 28.402C95.6111 28.4012 95.4672 28.455 95.3557 28.553C95.2441 28.6509 95.1728 28.7862 95.1553 28.9331C93.8318 39.8055 92.2179 51.4206 90.0668 65.5021C89.8289 67.0594 90.1395 68.5272 90.9433 69.6578C91.7484 70.7512 92.9166 71.3669 94.2325 71.3669H94.384C98.8789 71.2151 103.406 71.0248 107.871 70.7885C110.439 70.6454 112.868 68.2485 113.372 65.3591C115.612 52.6719 117.317 41.0593 118.608 29.8224C118.618 29.7375 118.611 29.6515 118.587 29.5692C118.564 29.487 118.524 29.4103 118.47 29.3436L118.461 29.3349ZM20.6217 43.3269L26.2385 43.2858C26.3838 43.2796 26.5224 43.2233 26.6305 43.1266C26.7385 43.0299 26.8093 42.8989 26.8307 42.7559C27.2264 40.1663 27.6508 37.5691 28.0828 34.972C28.342 33.3674 28.019 31.8823 27.1826 30.8001C26.4138 29.7553 25.2181 29.2117 23.7631 29.2117C20.3362 29.2117 14.4978 29.4605 9.93773 29.9058C7.38099 30.1695 4.14061 32.5676 3.63102 35.3787C1.76668 45.5782 0 59.5765 0 62.9921C0 63.813 0.125208 65.8803 1.21702 67.1987C2.12352 68.2995 3.59596 68.6727 4.89687 68.9028C8.70568 69.5608 15.5608 70.1118 18.4994 70.1118H18.7311C21.6334 70.0695 23.2536 68.5446 23.8145 65.2832C24.5357 60.9982 25.913 49.3259 26.0382 48.3955C26.1909 47.2761 25.9956 46.3917 25.4923 45.7698C24.9464 45.1404 24.1037 44.812 22.9506 44.812L14.0708 44.8282C13.9246 44.8333 13.7849 44.8891 13.6758 44.9859C13.5667 45.0827 13.4951 45.2143 13.4736 45.3581C13.4736 45.3581 12.8964 49.0411 12.6522 50.7651C12.5891 51.231 12.6238 51.7048 12.7542 52.1567C12.8845 52.6087 13.1078 53.0289 13.4097 53.3908C13.6514 53.7024 13.9575 53.9589 14.3074 54.143C14.6573 54.3271 15.0429 54.4345 15.4381 54.458H15.8713C15.7711 55.0588 15.1301 58.5876 14.8859 60.0031C13.8843 59.9446 10.4799 59.7394 9.87763 59.717C10.247 56.2218 12.2428 42.3965 12.7662 39.4809C13.6814 39.466 17.0345 39.4287 17.7056 39.4224C17.648 39.823 17.6267 40.175 17.6267 40.175C17.663 41.9163 18.994 43.3306 20.6317 43.3306L20.6217 43.3269ZM52.6748 61.0952C51.1723 61.0591 49.6786 61.0318 48.1899 61.0019C48.6294 57.2032 50.7091 41.8604 51.1949 38.6774C52.6974 38.6625 54.1999 38.6413 55.6948 38.6413C55.1064 42.5967 53.068 57.7405 52.6711 61.0952H52.6748ZM64.8976 29.9145C64.5137 29.3705 64.0022 28.9276 63.4072 28.6242C62.8123 28.3208 62.1519 28.1659 61.4832 28.1731C56.982 28.2154 52.4119 28.2888 47.9169 28.3883C45.2813 28.4617 42.8548 30.8648 42.394 33.8612C40.6674 45.1006 39.3102 55.315 38.1896 65.0942C38.0156 66.5506 38.399 68.0188 39.2638 69.2075C40.1403 70.3643 41.3723 71.0323 42.7421 71.0957C47.3009 71.296 51.8284 71.4465 56.2132 71.5472H56.3084C58.8501 71.5472 61.1476 69.2163 61.522 66.2335C62.8993 55.2877 64.4093 44.358 65.8279 34.2095C66.0658 32.585 65.7265 31.0626 64.9001 29.9108L64.8976 29.9145ZM90.8744 30.0289C90.0268 28.8833 88.816 28.2564 87.4487 28.2353C84.5527 28.193 81.6729 28.1557 78.7806 28.1345C78.8958 27.2925 79.1976 24.9677 79.1976 24.9677C79.4054 23.3582 79.0611 21.827 78.2247 20.669C77.3883 19.511 76.1863 18.8816 74.8353 18.8754H70.9326C70.7897 18.8765 70.6522 18.9295 70.5459 19.0244C70.4396 19.1192 70.3719 19.2493 70.3554 19.3903C69.6718 24.4341 65.431 55.2541 64.095 65.685C63.8934 67.2423 64.2327 68.7461 65.0529 69.8917C65.9018 71.0708 67.1338 71.7164 68.5161 71.7326C69.6179 71.7326 78.6466 71.7102 81.9759 71.6592C84.5602 71.6169 86.9429 69.2187 87.3911 66.1862C89.2342 53.8896 90.6591 43.7684 91.8761 34.3115C92.0839 32.7169 91.7509 31.2019 90.8819 30.0339L90.8744 30.0289ZM78.7643 61.2382C77.276 61.2532 75.7832 61.2602 74.2857 61.2594C74.2857 61.2594 77.0866 40.9088 77.3883 38.5928C78.8507 38.599 81.8958 38.6077 81.8958 38.6077C81.3824 42.5358 79.2163 58.0217 78.7656 61.2457L78.7643 61.2382Z" fill="#C54200"/>
<path d="M40.3118 25.3222C37.6399 41.5171 35.6679 55.9519 34.2918 69.4551C33.165 69.3916 32.0531 69.3307 30.945 69.271C30.4394 69.2327 29.9482 69.0864 29.5047 68.8421C29.0613 68.5978 28.6762 68.2613 28.3758 67.8555C27.6921 66.9848 27.3904 65.8367 27.5181 64.6215C28.9605 51.1444 31.0464 36.9161 33.8849 21.1578C35.023 21.0932 37.4846 20.9787 37.4846 20.9787C37.9178 20.9677 38.3471 21.0632 38.7342 21.2568C39.1212 21.4504 39.4542 21.736 39.7033 22.0882C40.3068 22.9029 40.5247 24.0485 40.3168 25.3222H40.3118ZM142.747 35.88C142.451 37.9945 142.143 40.0991 141.841 42.1328C140.184 42.1116 138.542 42.0905 136.894 42.0756C135.937 42.0606 135.123 41.2049 135.074 40.1874C135.058 39.823 135.306 39.0568 135.306 39.0568C135.33 38.9654 135.334 38.8696 135.317 38.7766C135.299 38.6835 135.261 38.5956 135.204 38.5194C135.154 38.4392 135.084 38.3729 135 38.3268C134.917 38.2807 134.824 38.2562 134.728 38.2557C134.728 38.2557 130.503 38.15 129.219 38.1201C129.066 38.1148 128.917 38.1682 128.803 38.2692C128.689 38.3702 128.618 38.511 128.606 38.6625C128.521 39.2782 127.642 44.4426 127.531 45.1578C127.517 45.248 127.522 45.3403 127.547 45.4283C127.571 45.5163 127.615 45.598 127.674 45.6678C127.729 45.7354 127.798 45.7899 127.877 45.8271C127.956 45.8644 128.043 45.8835 128.13 45.883H137.395C137.871 45.8742 138.342 45.9727 138.774 46.1711C139.206 46.3696 139.587 46.6627 139.888 47.0286C140.48 47.7375 140.765 48.4067 140.572 49.9168C139.809 56.3549 139.117 59.6586 138.174 63.1998C137.576 65.4822 135.409 67.5856 133.466 67.802C127.187 68.511 119.921 68.8904 119.921 68.8904C118.906 68.9414 118.057 68.5744 117.502 67.8319C116.919 67.0657 116.708 65.986 116.925 64.7981C117.358 62.3366 117.768 59.9111 118.177 57.4719C119.891 57.4134 121.612 57.3562 123.376 57.2928C124.297 57.2928 125.011 58.1075 125.017 59.1324C124.987 59.5673 124.929 59.9998 124.843 60.4273C124.825 60.615 124.882 60.8021 125.002 60.9484C125.063 61.0152 125.137 61.0678 125.221 61.1024C125.304 61.1371 125.394 61.1529 125.484 61.1487C127.312 61.0542 129.133 60.9634 130.98 60.8638C131.117 60.8518 131.246 60.7953 131.347 60.7031C131.448 60.611 131.516 60.4882 131.541 60.3539C131.748 59.2543 132.398 55.7255 132.667 54.0675C132.683 53.9764 132.679 53.8829 132.654 53.7939C132.629 53.7048 132.584 53.6223 132.523 53.5525C132.465 53.4825 132.391 53.4266 132.308 53.3893C132.224 53.352 132.133 53.3343 132.041 53.3373C130.414 53.3883 123.004 53.4157 123.004 53.4157C120.929 53.4157 119.434 51.9492 119.657 49.7538C120.033 46.0223 121.753 35.3688 121.838 34.605C122.104 32.386 123.842 30.7068 125.9 30.7068C131.884 30.8213 136.7 31.1919 139.142 31.5066C140.136 31.631 141.376 32.3649 141.928 33.1162C142.569 33.9533 142.892 34.7891 142.748 35.8775L142.747 35.88ZM112.212 65.1215C111.805 67.4612 109.823 69.4402 107.799 69.5558C103.35 69.7922 98.8276 69.9862 94.3389 70.128L94.2237 70.1342C93.7623 70.1384 93.3069 70.0297 92.8977 69.8178C92.4885 69.6058 92.1381 69.2972 91.8773 68.919C91.2638 68.067 91.0346 66.9152 91.23 65.685C93.3385 51.8298 94.9461 40.3354 96.2558 29.6135C97.3939 29.6346 98.5221 29.6657 99.6702 29.6869C100.168 29.7036 100.654 29.8343 101.092 30.0689C101.531 30.3034 101.908 30.6354 102.196 31.0389C102.858 31.9096 103.138 33.0838 102.989 34.3426C101.914 42.8816 100.648 51.693 99.1343 61.2868C99.1157 61.3737 99.1172 61.4637 99.1389 61.5499C99.1606 61.6362 99.2019 61.7163 99.2595 61.7843C99.3156 61.8495 99.3853 61.9017 99.4638 61.9374C99.5423 61.973 99.6277 61.9913 99.714 61.9908C101.513 61.9485 103.307 61.8962 105.084 61.839C105.223 61.8293 105.355 61.7731 105.458 61.6796C105.561 61.5862 105.629 61.4609 105.651 61.3241C107.214 51.688 108.489 42.8181 109.554 34.2082C109.841 31.8897 111.576 30.1533 113.572 30.1533L117.352 30.31C116.077 41.3193 114.393 52.7129 112.205 65.1265L112.212 65.1215ZM12.239 38.247C12.1049 38.2516 11.9762 38.3006 11.8735 38.3863C11.7707 38.4719 11.6997 38.5893 11.6718 38.7197C11.3275 40.1501 8.71817 58.0764 8.61801 60.2718C8.60629 60.4329 8.65945 60.5921 8.7658 60.7143C8.87216 60.8365 9.02301 60.9118 9.1852 60.9235C9.95397 60.9658 14.211 61.2171 15.3429 61.2743C15.4925 61.2789 15.6387 61.2301 15.7551 61.1367C15.8716 61.0434 15.9505 60.9117 15.9777 60.7656C16.2732 59.0242 17.042 54.7951 17.1647 53.9543C17.1823 53.8693 17.1802 53.7814 17.1585 53.6974C17.1368 53.6133 17.0961 53.5353 17.0395 53.4692C16.9883 53.4012 16.922 53.3459 16.8458 53.3075C16.7696 53.2691 16.6854 53.2486 16.6 53.2478L15.4731 53.2204C15.2487 53.2003 15.0309 53.1338 14.8339 53.0252C14.6368 52.9166 14.4647 52.7683 14.3287 52.5898C14.1396 52.3628 13.9998 52.0995 13.9179 51.8163C13.836 51.5332 13.8139 51.2362 13.8529 50.9442C14.0908 49.2625 14.3287 47.7313 14.5879 46.0795L22.9693 46.0646C23.7418 46.0646 24.2877 46.2437 24.5745 46.5795C24.8612 46.9154 24.9401 47.4676 24.8249 48.2251C24.7097 49.1829 23.3337 60.8228 22.6162 65.0792C22.1567 67.7398 21.0298 68.8406 18.7047 68.8618H18.4969C15.6109 68.8618 8.84964 68.3195 5.09967 67.6826C3.94025 67.4823 2.79585 67.1851 2.12474 66.394C1.45363 65.6029 1.20947 64.1115 1.20947 62.9958C1.20947 59.9496 2.82966 46.48 4.81545 35.6126C5.23364 33.3612 7.97694 31.3835 10.0579 31.1633C14.5654 30.7056 20.3612 30.4693 23.7606 30.4693C24.5018 30.4693 25.5398 30.6533 26.2447 31.5788C26.8482 32.3873 27.0861 33.5179 26.8845 34.7767C26.4826 37.2009 26.0857 39.6277 25.7101 42.0358L20.6054 42.0718C19.6475 42.0718 18.8525 41.2011 18.8212 40.1563C18.8362 39.9834 19.1292 38.1898 19.1292 38.1898C19.1292 38.1898 13.2895 38.2109 12.2428 38.247H12.239ZM56.3722 37.4261C54.4715 37.441 52.5725 37.4497 50.6752 37.4522C50.5377 37.4582 50.4064 37.5109 50.3032 37.6014C50.2 37.692 50.1311 37.8149 50.108 37.9497C49.8276 39.5419 47.1632 59.1623 46.9478 61.538C46.937 61.7011 46.9884 61.8623 47.0918 61.9895C47.143 62.0524 47.2074 62.1034 47.2805 62.1391C47.3536 62.1747 47.4336 62.1942 47.515 62.196C49.4006 62.2383 51.29 62.2806 53.1907 62.3117C53.3403 62.3077 53.4833 62.2493 53.5925 62.1475C53.7017 62.0457 53.7694 61.9076 53.7829 61.7594C53.9256 60.1922 56.5688 40.5357 56.9594 38.1264C56.9753 38.0406 56.9712 37.9524 56.9473 37.8685C56.9234 37.7846 56.8804 37.7073 56.8217 37.6425C56.7706 37.5712 56.702 37.5141 56.6225 37.4764C56.543 37.4388 56.4551 37.4219 56.3672 37.4273L56.3722 37.4261ZM64.6684 34.0428C63.2498 44.2001 61.7511 55.1098 60.3688 66.0756C60.0608 68.4588 58.2816 70.332 56.3146 70.332H56.2345C51.871 70.2375 47.3447 70.0832 42.7909 69.8805C41.7755 69.8369 40.8539 69.3369 40.1979 68.455C39.5177 67.5266 39.2215 66.3746 39.3702 65.236C40.4658 55.4643 41.8393 45.2797 43.5534 34.0553C43.9353 31.5937 45.8572 29.657 47.9357 29.5899C52.4369 29.5053 57.0007 29.417 61.5232 29.3747C62.0019 29.3747 62.4734 29.49 62.8973 29.7108C63.3212 29.9315 63.6849 30.2511 63.9573 30.6421C64.5921 31.5365 64.8512 32.7368 64.6622 34.0403L64.6684 34.0428ZM90.7041 34.1485C89.4871 43.5906 88.0622 53.7117 86.2254 65.991C85.8586 68.4525 83.9855 70.3992 81.9471 70.4265C77.5648 70.49 73.0098 70.5198 68.5248 70.49C67.5232 70.4837 66.6242 70.0111 65.9981 69.1528C65.3521 68.2585 65.0929 67.0793 65.2569 65.7758C66.5966 55.4133 70.7861 24.9317 71.4422 20.0757H74.8228C75.3099 20.0791 75.7887 20.2011 76.2174 20.431C76.6461 20.6608 77.0116 20.9915 77.2818 21.3942C77.9379 22.2885 78.1971 23.5087 78.0231 24.8073C78.0231 24.8073 77.6637 27.5686 77.5222 28.6632C77.5121 28.7485 77.5197 28.8351 77.5444 28.9174C77.5692 28.9998 77.6107 29.0762 77.6662 29.1421C77.7178 29.2092 77.7843 29.2635 77.8606 29.3009C77.9368 29.3382 78.0207 29.3575 78.1057 29.3573C81.2146 29.3734 84.326 29.4008 87.4362 29.458C88.4303 29.4642 89.3143 29.9369 89.9341 30.774C90.5939 31.6721 90.8694 32.8661 90.7041 34.1485ZM82.5756 37.395C82.5756 37.395 78.5151 37.3738 76.8787 37.3738C76.7339 37.379 76.5957 37.4353 76.4889 37.5327C76.3822 37.6301 76.314 37.7621 76.2965 37.905C76.1587 38.9834 73.0285 61.7955 73.0285 61.7955C73.0179 61.8798 73.0251 61.9654 73.0497 62.0468C73.0743 62.1282 73.1157 62.2036 73.1713 62.2681C73.2244 62.3352 73.2921 62.3895 73.3692 62.427C73.4464 62.4644 73.5311 62.4841 73.617 62.4846C75.4951 62.4846 77.392 62.4684 79.2777 62.4572C79.4183 62.4497 79.5523 62.3952 79.6579 62.3027C79.7636 62.2101 79.8347 62.0849 79.8599 61.9472C80.0677 60.538 82.8649 40.4387 83.1578 38.0928C83.1712 38.0074 83.1654 37.9202 83.1407 37.8374C83.116 37.7546 83.0731 37.6782 83.0151 37.6139C82.9627 37.5477 82.896 37.494 82.82 37.4567C82.7439 37.4195 82.6604 37.3997 82.5756 37.3987V37.395Z" fill="#EE7100"/>
</svg>
