<svg width="144" height="32" viewBox="0 0 144 32" fill="none" xmlns="http://www.w3.org/2000/svg">
<path d="M0 22.2506C1.3007 25.1638 3.42211 27.6353 6.10513 29.3634C8.78816 31.0916 11.9167 32.0014 15.1086 31.9819C13.8091 29.0678 11.6879 26.5954 9.00464 24.8672C6.32135 23.1389 3.19221 22.2296 0 22.2506H0Z" fill="#18A95D"/>
<path d="M15.1086 31.9818C17.447 31.9864 19.7386 31.3277 21.7171 30.0822C23.6957 28.8368 25.2799 27.0557 26.2858 24.9461C23.9478 24.9428 21.6567 25.6021 19.6784 26.8474C17.7001 28.0927 16.1156 29.873 15.1086 31.9818Z" fill="#18A95D"/>
<path fill-rule="evenodd" clip-rule="evenodd" d="M27.4286 11.9938C27.4077 13.5898 27.0725 15.166 26.442 16.6325C25.8116 18.0989 24.8983 19.4269 23.7542 20.5405C22.6102 21.6542 21.2578 22.5317 19.7744 23.123C18.291 23.7143 16.7055 24.0077 15.1086 23.9866C11.8855 24.0262 8.77845 22.7853 6.47042 20.5365C4.16239 18.2877 2.84222 15.215 2.80005 11.9938C2.84222 8.77266 4.16239 5.70001 6.47042 3.4512C8.77845 1.20239 11.8855 -0.0385697 15.1086 0.00106583C16.7055 -0.0200717 18.291 0.273378 19.7744 0.864657C21.2578 1.45594 22.6102 2.33346 23.7542 3.44712C24.8983 4.56078 25.8116 5.88875 26.442 7.35521C27.0725 8.82167 27.4077 10.3979 27.4286 11.9938ZM21.2686 11.9938C21.2582 12.7918 21.0906 13.5799 20.7753 14.3131C20.4601 15.0464 20.0034 15.7104 19.4314 16.2672C18.8594 16.824 18.1832 17.2628 17.4415 17.5584C16.6998 17.8541 15.9071 18.0008 15.1086 17.9902C13.498 18.0085 11.946 17.3874 10.7932 16.2631C9.64044 15.1389 8.98114 13.6034 8.96005 11.9938C8.98114 10.3842 9.64044 8.84879 10.7932 7.72455C11.946 6.60031 13.498 5.97916 15.1086 5.99745C15.9071 5.98688 16.6998 6.13361 17.4415 6.42924C18.1832 6.72488 18.8594 7.16365 19.4314 7.72048C20.0034 8.2773 20.4601 8.94129 20.7753 9.67452C21.0906 10.4077 21.2582 11.1959 21.2686 11.9938Z" fill="#FCBF00"/>
<path d="M93.7142 11.971H98.8571V31.3879H93.7142V23.8496H84.7428V31.4336H79.6114V12.0167H84.7428V19.1895H93.7142V11.971ZM101.257 16.791H107.657V31.4336H112.789V16.791H119.097V11.971H101.257V16.791ZM144 27.1961V31.3422C142.98 31.7954 141.87 32.014 140.754 31.9818C138.091 31.9818 136.743 30.8396 136.183 29.0122L136.091 29.1378C135.312 30.0825 134.322 30.8318 133.201 31.3256C132.079 31.8195 130.858 32.0442 129.634 31.9818C128.347 31.9988 127.071 31.7441 125.89 31.2344C124.708 30.7246 123.647 29.9712 122.777 29.0236C120.921 27.0448 119.923 24.4133 120 21.7023C119.968 20.3636 120.201 19.0318 120.686 17.7833C121.17 16.5348 121.896 15.3942 122.823 14.4267C123.689 13.4707 124.748 12.7088 125.93 12.1911C127.111 11.6733 128.39 11.4115 129.68 11.4228C130.854 11.362 132.027 11.5644 133.112 12.0149C134.198 12.4655 135.169 13.1529 135.954 14.0269V11.971H141.086V25.7341C141.086 26.8763 141.634 27.5273 142.731 27.5273C143.175 27.5253 143.612 27.4114 144 27.1961ZM136.126 21.7023C136.153 20.9714 136.025 20.243 135.749 19.5655C135.473 18.8881 135.056 18.2771 134.526 17.7732C133.757 16.9866 132.769 16.4487 131.691 16.2291C130.613 16.0096 129.494 16.1184 128.478 16.5417C127.462 16.9649 126.597 17.683 125.994 18.603C125.392 19.5231 125.079 20.6027 125.097 21.7023C125.118 22.7843 125.453 23.8371 126.06 24.733C126.667 25.629 127.522 26.3297 128.52 26.7503C129.517 27.1709 130.616 27.2934 131.682 27.1029C132.748 26.9124 133.736 26.4171 134.526 25.677C135.053 25.1614 135.468 24.5419 135.744 23.8577C136.019 23.1734 136.149 22.4394 136.126 21.7023ZM37.3028 11.971L37.1542 19.2809C37.2256 21.3306 37.0297 23.3809 36.5714 25.3801C36.1714 26.9905 35.4285 27.436 34.1943 27.436C33.8386 27.448 33.4835 27.4017 33.1428 27.2989V31.4336C33.7534 31.6873 34.4144 31.7967 35.0743 31.7534C38.6857 31.6506 40.4343 29.983 41.3143 26.9905C41.865 24.9535 42.1454 22.8529 42.1485 20.7429L42.2857 16.791H48.6628V31.4336H53.7942V12.0167L37.3028 11.971ZM62.0342 23.0158C62.5942 26.3395 65.28 27.4245 68.0114 27.4245C69.7879 27.4266 71.5111 26.8176 72.8914 25.6999L76.0571 28.818C75.0107 29.8993 73.7429 30.7418 72.3404 31.2879C70.9379 31.834 69.4339 32.0707 67.9314 31.9818C62.9028 31.9818 56.8228 29.0693 56.8228 21.7023C56.8228 14.3353 62.6742 11.4228 67.6457 11.4228C73.9314 11.4228 76.5257 14.3125 76.5257 17.5562C76.5714 22.8445 69.6457 25.2887 62.0342 23.0158ZM70.96 18.1273C70.96 16.6196 69.4285 15.9458 67.7142 15.9458C65.1428 15.9914 62.8571 17.0194 62.1485 19.7949C67.4285 21.3025 70.96 20.1832 70.96 18.1273Z" fill="#171C8F"/>
</svg>
