<svg width="192" height="25" viewBox="0 0 192 25" fill="none" xmlns="http://www.w3.org/2000/svg">
<path d="M14.3289 6.79155L11.5589 9.58555L8.78788 6.79155C7.25788 5.24955 7.25788 2.74555 8.78788 1.15555C9.15042 0.789433 9.58193 0.498806 10.0575 0.300464C10.533 0.102122 11.0431 0 11.5584 0C12.0736 0 12.5838 0.102122 13.0593 0.300464C13.5348 0.498806 13.9663 0.789433 14.3289 1.15555C15.8589 2.74555 15.8589 5.24955 14.3289 6.79155Z" fill="#5FAF2D"/>
<path d="M8.78788 14.6906L11.5579 11.8976L14.3289 14.6906C15.8589 16.2326 15.8589 18.7376 14.3289 20.3266C13.9663 20.6927 13.5348 20.9833 13.0593 21.1817C12.5838 21.38 12.0736 21.4821 11.5584 21.4821C11.0431 21.4821 10.533 21.38 10.0575 21.1817C9.58193 20.9833 9.15042 20.6927 8.78788 20.3266C7.25788 18.7366 7.25788 16.2326 8.78788 14.6906Z" fill="#005A28"/>
<path d="M15.4749 13.5836L12.7039 10.7416L15.4739 7.94756C15.8364 7.58129 16.268 7.29054 16.7436 7.0921C17.2192 6.89367 17.7295 6.7915 18.2449 6.7915C18.7602 6.7915 19.2705 6.89367 19.7461 7.0921C20.2217 7.29054 20.6533 7.58129 21.0159 7.94756C22.5449 9.48956 22.5449 11.9936 21.0159 13.5836C20.6533 13.9497 20.2218 14.2403 19.7463 14.4386C19.2707 14.637 18.7606 14.7391 18.2454 14.7391C17.7301 14.7391 17.22 14.637 16.7444 14.4386C16.2689 14.2403 15.8374 13.9497 15.4749 13.5836Z" fill="#1EAF37"/>
<path d="M7.68679 7.94759L10.4578 10.7416L7.68779 13.5356C7.32523 13.9019 6.89366 14.1926 6.41803 14.391C5.9424 14.5895 5.43215 14.6916 4.91679 14.6916C4.40143 14.6916 3.89118 14.5895 3.41555 14.391C2.93992 14.1926 2.50835 13.9019 2.14579 13.5356C0.615791 11.9936 0.615791 9.48959 2.14579 7.89959C3.62579 6.40659 6.15879 6.40659 7.68679 7.94759Z" fill="#AAE641"/>
<path d="M162.904 9.87455H158.843V19.7495H155.499V9.87455H151.438V6.59855H162.904V9.87455ZM48.8197 14.5945H58.5657C58.6634 14.1353 58.7116 13.667 58.7097 13.1975C58.7097 9.34455 55.9857 6.26155 52.1647 6.26155C48.1037 6.26155 45.3327 9.29655 45.3327 13.1975C45.3327 17.0995 48.0557 20.1345 52.4027 20.1345C54.8877 20.1345 56.8457 19.1225 58.0407 17.3405L55.3647 15.7505C54.7917 16.5215 53.7407 17.0515 52.4507 17.0515C50.7307 17.0515 49.2977 16.3285 48.8207 14.5945H48.8197ZM48.7727 11.9455C49.1547 10.2595 50.3967 9.29555 52.1647 9.29555C53.5497 9.29555 54.9827 10.0665 55.3647 11.9455H48.7717H48.7727ZM68.5508 6.26155C66.6878 6.26155 65.3018 6.98455 64.3467 8.18855V6.64655H61.0027V24.9995H64.3467V18.2075C65.3018 19.4115 66.6398 20.1345 68.5508 20.1345C72.0378 20.1345 74.8568 17.0995 74.8568 13.1975C74.9048 9.29655 72.0378 6.26155 68.5508 6.26155ZM67.9297 16.8585C65.8747 16.8585 64.3467 15.3655 64.3467 13.1495C64.3467 10.9335 65.8747 9.44055 67.9297 9.44055C69.9837 9.44055 71.5127 10.9335 71.5127 13.1505C71.5127 15.3655 70.0317 16.8585 67.9297 16.8585ZM80.0638 14.5945H89.8097C89.907 14.1353 89.955 13.667 89.9528 13.1975C89.9528 9.34455 87.2298 6.26155 83.4088 6.26155C79.3478 6.26155 76.5768 9.29655 76.5768 13.1975C76.5768 17.0995 79.2998 20.1345 83.6468 20.1345C86.1318 20.1345 88.0898 19.1225 89.2848 17.3405L86.6087 15.7505C86.0357 16.5215 84.9847 17.0515 83.6947 17.0515C81.9747 17.0515 80.5418 16.3285 80.0648 14.5945H80.0638ZM80.0167 11.9455C80.3987 10.2595 81.6407 9.29555 83.4077 9.29555C84.7937 9.29555 86.2277 10.0665 86.6087 11.9455H80.0167ZM114.366 6.26155C112.455 6.26155 111.117 6.98455 110.162 8.18855V6.64655H106.818V24.9995H110.162V18.2075C111.117 19.4115 112.455 20.1345 114.366 20.1345C117.853 20.1345 120.672 17.0995 120.672 13.1975C120.672 9.29655 117.806 6.26155 114.366 6.26155ZM113.745 16.8585C111.691 16.8585 110.162 15.3655 110.162 13.1495C110.162 10.9335 111.691 9.44055 113.745 9.44055C115.799 9.44055 117.328 10.9335 117.328 13.1505C117.328 15.3655 115.799 16.8585 113.745 16.8585ZM125.879 14.5945H135.625C135.721 14.1615 135.769 13.6795 135.769 13.1975C135.769 9.34455 133.046 6.26155 129.224 6.26155C125.163 6.26155 122.392 9.29655 122.392 13.1975C122.392 17.0995 125.115 20.1345 129.463 20.1345C131.947 20.1345 133.905 19.1225 135.1 17.3405L132.424 15.7505C131.851 16.5215 130.8 17.0515 129.51 17.0515C127.743 17.0515 126.309 16.3285 125.879 14.5945ZM126.596 5.24955C127.552 5.24955 128.316 4.47955 128.316 3.51555C128.316 2.55255 127.552 1.73355 126.596 1.73355C125.641 1.73355 124.828 2.55255 124.828 3.51555C124.828 4.47955 125.641 5.24955 126.596 5.24955ZM125.784 11.9455C126.166 10.2595 127.408 9.29555 129.176 9.29555C130.561 9.29555 131.995 10.0665 132.377 11.9455H125.784ZM131.469 5.24955C132.424 5.24955 133.189 4.47955 133.189 3.51555C133.189 2.55255 132.424 1.73355 131.469 1.73355C130.514 1.73355 129.701 2.55255 129.701 3.51555C129.749 4.47955 130.514 5.24955 131.469 5.24955ZM144.129 20.0865C146.661 20.0865 148.859 18.7365 149.957 16.6665L147.043 14.9805C146.518 16.0405 145.419 16.7145 144.081 16.7145C142.075 16.7145 140.594 15.2215 140.594 13.1495C140.594 11.0785 142.075 9.58555 144.081 9.58555C145.419 9.58555 146.518 10.2595 147.043 11.3195L149.91 9.63355C148.859 7.61055 146.661 6.26155 144.129 6.26155C140.212 6.26155 137.297 9.29655 137.297 13.1975C137.297 17.0995 140.212 20.0865 144.129 20.0865ZM170.835 20.0865C174.657 20.0865 177.666 17.0515 177.666 13.1495C177.666 9.24855 174.657 6.26155 170.835 6.26155C167.013 6.26155 164.003 9.29655 164.003 13.1975C164.003 17.0995 167.013 20.0865 170.835 20.0865ZM170.835 16.8105C168.876 16.8105 167.347 15.3175 167.347 13.1975C167.347 11.0785 168.876 9.58555 170.835 9.58555C172.841 9.58555 174.37 11.0785 174.37 13.1975C174.37 15.3175 172.841 16.8105 170.835 16.8105ZM100.75 19.7495H104.62L99.6517 13.1015L104.429 6.64655H100.464L96.7848 11.9455H95.6387V6.64655H92.2947V19.7495H95.6387V14.5945H97.0238L100.75 19.7495ZM188.129 19.7495H191.998L187.078 13.1015L191.855 6.64655H187.89L184.164 11.9935H183.017V6.64655H179.673V19.7495H183.017V14.5945H184.402L188.129 19.7495ZM43.1347 1.68555H29.6147V19.6995H33.1987V5.10555H39.6007V19.7495H43.1837V1.68555H43.1357H43.1347Z" fill="#005A28"/>
</svg>
