<svg width="192" height="25" viewBox="0 0 192 25" fill="none" xmlns="http://www.w3.org/2000/svg">
<path d="M14.3289 6.79106L11.5589 9.58506L8.78788 6.79106C7.25788 5.24906 7.25788 2.74506 8.78788 1.15506C9.15042 0.788945 9.58193 0.498318 10.0575 0.299976C10.533 0.101634 11.0431 -0.000488281 11.5584 -0.000488281C12.0736 -0.000488281 12.5838 0.101634 13.0593 0.299976C13.5348 0.498318 13.9663 0.788945 14.3289 1.15506C15.8589 2.74506 15.8589 5.24906 14.3289 6.79106Z" fill="#AFAFAF"/>
<path d="M8.78788 14.6901L11.5579 11.8971L14.3289 14.6901C15.8589 16.2321 15.8589 18.7371 14.3289 20.3261C13.9663 20.6922 13.5348 20.9828 13.0593 21.1812C12.5838 21.3795 12.0736 21.4816 11.5584 21.4816C11.0431 21.4816 10.533 21.3795 10.0575 21.1812C9.58193 20.9828 9.15042 20.6922 8.78788 20.3261C7.25788 18.7361 7.25788 16.2321 8.78788 14.6901Z" fill="#AFAFAF"/>
<path d="M15.4749 13.5831L12.7039 10.7411L15.4739 7.94707C15.8364 7.5808 16.268 7.29005 16.7436 7.09162C17.2192 6.89319 17.7295 6.79102 18.2449 6.79102C18.7602 6.79102 19.2705 6.89319 19.7461 7.09162C20.2217 7.29005 20.6533 7.5808 21.0159 7.94707C22.5449 9.48907 22.5449 11.9931 21.0159 13.5831C20.6533 13.9492 20.2218 14.2398 19.7463 14.4382C19.2707 14.6365 18.7606 14.7386 18.2454 14.7386C17.7301 14.7386 17.22 14.6365 16.7444 14.4382C16.2689 14.2398 15.8374 13.9492 15.4749 13.5831Z" fill="#AFAFAF"/>
<path d="M7.68679 7.9471L10.4578 10.7411L7.68779 13.5351C7.32523 13.9014 6.89366 14.1921 6.41803 14.3906C5.9424 14.589 5.43215 14.6912 4.91679 14.6912C4.40143 14.6912 3.89118 14.589 3.41555 14.3906C2.93992 14.1921 2.50835 13.9014 2.14579 13.5351C0.615791 11.9931 0.615791 9.4891 2.14579 7.8991C3.62579 6.4061 6.15879 6.4061 7.68679 7.9471Z" fill="#AFAFAF"/>
<path d="M162.904 9.87406H158.843V19.7491H155.499V9.87406H151.438V6.59806H162.904V9.87406ZM48.8197 14.5941H58.5657C58.6634 14.1349 58.7116 13.6665 58.7097 13.1971C58.7097 9.34406 55.9857 6.26106 52.1647 6.26106C48.1037 6.26106 45.3327 9.29606 45.3327 13.1971C45.3327 17.0991 48.0557 20.1341 52.4027 20.1341C54.8877 20.1341 56.8457 19.1221 58.0407 17.3401L55.3647 15.7501C54.7917 16.5211 53.7407 17.0511 52.4507 17.0511C50.7307 17.0511 49.2977 16.3281 48.8207 14.5941H48.8197ZM48.7727 11.9451C49.1547 10.2591 50.3967 9.29506 52.1647 9.29506C53.5497 9.29506 54.9827 10.0661 55.3647 11.9451H48.7717H48.7727ZM68.5508 6.26106C66.6878 6.26106 65.3018 6.98406 64.3467 8.18806V6.64606H61.0027V24.9991H64.3467V18.2071C65.3018 19.4111 66.6398 20.1341 68.5508 20.1341C72.0378 20.1341 74.8568 17.0991 74.8568 13.1971C74.9048 9.29606 72.0378 6.26106 68.5508 6.26106ZM67.9297 16.8581C65.8747 16.8581 64.3467 15.3651 64.3467 13.1491C64.3467 10.9331 65.8747 9.44006 67.9297 9.44006C69.9837 9.44006 71.5127 10.9331 71.5127 13.1501C71.5127 15.3651 70.0317 16.8581 67.9297 16.8581ZM80.0638 14.5941H89.8097C89.907 14.1348 89.955 13.6665 89.9528 13.1971C89.9528 9.34406 87.2298 6.26106 83.4088 6.26106C79.3478 6.26106 76.5768 9.29606 76.5768 13.1971C76.5768 17.0991 79.2998 20.1341 83.6468 20.1341C86.1318 20.1341 88.0898 19.1221 89.2848 17.3401L86.6087 15.7501C86.0357 16.5211 84.9847 17.0511 83.6947 17.0511C81.9747 17.0511 80.5418 16.3281 80.0648 14.5941H80.0638ZM80.0167 11.9451C80.3987 10.2591 81.6407 9.29506 83.4077 9.29506C84.7937 9.29506 86.2277 10.0661 86.6087 11.9451H80.0167ZM114.366 6.26106C112.455 6.26106 111.117 6.98406 110.162 8.18806V6.64606H106.818V24.9991H110.162V18.2071C111.117 19.4111 112.455 20.1341 114.366 20.1341C117.853 20.1341 120.672 17.0991 120.672 13.1971C120.672 9.29606 117.806 6.26106 114.366 6.26106ZM113.745 16.8581C111.691 16.8581 110.162 15.3651 110.162 13.1491C110.162 10.9331 111.691 9.44006 113.745 9.44006C115.799 9.44006 117.328 10.9331 117.328 13.1501C117.328 15.3651 115.799 16.8581 113.745 16.8581ZM125.879 14.5941H135.625C135.721 14.1611 135.769 13.6791 135.769 13.1971C135.769 9.34406 133.046 6.26106 129.224 6.26106C125.163 6.26106 122.392 9.29606 122.392 13.1971C122.392 17.0991 125.115 20.1341 129.463 20.1341C131.947 20.1341 133.905 19.1221 135.1 17.3401L132.424 15.7501C131.851 16.5211 130.8 17.0511 129.51 17.0511C127.743 17.0511 126.309 16.3281 125.879 14.5941ZM126.596 5.24906C127.552 5.24906 128.316 4.47906 128.316 3.51506C128.316 2.55206 127.552 1.73306 126.596 1.73306C125.641 1.73306 124.828 2.55206 124.828 3.51506C124.828 4.47906 125.641 5.24906 126.596 5.24906ZM125.784 11.9451C126.166 10.2591 127.408 9.29506 129.176 9.29506C130.561 9.29506 131.995 10.0661 132.377 11.9451H125.784ZM131.469 5.24906C132.424 5.24906 133.189 4.47906 133.189 3.51506C133.189 2.55206 132.424 1.73306 131.469 1.73306C130.514 1.73306 129.701 2.55206 129.701 3.51506C129.749 4.47906 130.514 5.24906 131.469 5.24906ZM144.129 20.0861C146.661 20.0861 148.859 18.7361 149.957 16.6661L147.043 14.9801C146.518 16.0401 145.419 16.7141 144.081 16.7141C142.075 16.7141 140.594 15.2211 140.594 13.1491C140.594 11.0781 142.075 9.58506 144.081 9.58506C145.419 9.58506 146.518 10.2591 147.043 11.3191L149.91 9.63306C148.859 7.61006 146.661 6.26106 144.129 6.26106C140.212 6.26106 137.297 9.29606 137.297 13.1971C137.297 17.0991 140.212 20.0861 144.129 20.0861ZM170.835 20.0861C174.657 20.0861 177.666 17.0511 177.666 13.1491C177.666 9.24806 174.657 6.26106 170.835 6.26106C167.013 6.26106 164.003 9.29606 164.003 13.1971C164.003 17.0991 167.013 20.0861 170.835 20.0861ZM170.835 16.8101C168.876 16.8101 167.347 15.3171 167.347 13.1971C167.347 11.0781 168.876 9.58506 170.835 9.58506C172.841 9.58506 174.37 11.0781 174.37 13.1971C174.37 15.3171 172.841 16.8101 170.835 16.8101ZM100.75 19.7491H104.62L99.6517 13.1011L104.429 6.64606H100.464L96.7848 11.9451H95.6387V6.64606H92.2947V19.7491H95.6387V14.5941H97.0238L100.75 19.7491ZM188.129 19.7491H191.998L187.078 13.1011L191.855 6.64606H187.89L184.164 11.9931H183.017V6.64606H179.673V19.7491H183.017V14.5941H184.402L188.129 19.7491ZM43.1347 1.68506H29.6147V19.6991H33.1987V5.10506H39.6007V19.7491H43.1837V1.68506H43.1357H43.1347Z" fill="#AFAFAF"/>
</svg>
